# xmcd
#
# Track frame offsets: 
#        150
#        16243
#        41747
#        61507
#        76756
#        100030
#        114673
#        129388
#        141346
#
# Disc length: 2055 seconds
#
# Revision: 0
# Processed by: cddbd v1.5.2PL0 Copyright (c) Steve Scherf et al.
# Submitted via: ExactAudioCopy v0.99pb4
#
DISCID=69080509
DTITLE=The Blues Project - Back Door Man
DYEAR=1987
DGENRE=Blues
TTITLE0=Back Door Man
TTITLE1=Black Night
TTITLE2=I'm Ready
TTITLE3=Crazy Girl
TTITLE4=Little Rain
TTITLE5=Brown-Eyed Handsome Man
TTITLE6=It's Alright
TTITLE7=Midnight Rain
TTITLE8=So Far, So Near
EXTD=
EXTT0=
EXTT1=
EXTT2=
EXTT3=
EXTT4=
EXTT5=
EXTT6=
EXTT7=
EXTT8=
PLAYORDER=
